<svg xmlns="http://www.w3.org/2000/svg" viewBox="0 0 512 512" width="512" height="512"><rect width="512" height="512" fill="#ff6b00"/><g fill="#0a0a0a"><g transform="translate(101.875 240.640)"><g transform="translate(0.000 0.000) scale(0.125000 -0.125000)"><path d="M549 668H391V928H549Q659 928 719.5 971.5Q780 1015 780 1094Q780 1177 719.5 1223.5Q659 1270 549 1270Q465 1270 369.0 1249.0Q273 1228 170 1188V1456Q273 1487 373.0 1503.5Q473 1520 565 1520Q801 1520 933.0 1417.0Q1065 1314 1065 1133Q1065 1000 989.0 915.5Q913 831 772 805Q932 777 1016.0 677.5Q1100 578 1100 416Q1100 199 961.0 85.0Q822 -29 557 -29Q444 -29 334.5 -10.0Q225 9 125 45V319Q219 272 328.0 247.5Q437 223 557 223Q677 223 747.0 278.5Q817 334 817 428Q817 543 747.0 605.5Q677 668 549 668Z"/></g><g transform="translate(154.125 0.000) scale(0.125000 -0.125000)"><path d="M203 20V289Q282 243 354.5 221.0Q427 199 494 199Q653 199 736.5 305.5Q820 412 825 624Q778 559 705.0 526.5Q632 494 532 494Q331 494 221.0 621.5Q111 749 111 983Q111 1233 234.0 1370.0Q357 1507 582 1507Q855 1507 978.5 1324.5Q1102 1142 1102 735Q1102 348 951.0 154.5Q800 -39 498 -39Q428 -39 353.5 -24.0Q279 -9 203 20ZM590 741Q685 741 735.5 810.5Q786 880 786 1012Q786 1143 735.5 1212.5Q685 1282 590 1282Q494 1282 442.5 1212.5Q391 1143 391 1012Q391 881 442.5 811.0Q494 741 590 741Z"/></g></g><circle cx="189.44" cy="378.88" r="28.16"/><circle cx="256.0" cy="378.88" r="28.16"/><circle cx="322.56" cy="378.88" r="28.16"/></g></svg>